/* XPM */
static char * gluplot_xpm[] = {
"32 32 386 2",
"  	c None",
". 	c #F28B00",
"+ 	c #ED8500",
"@ 	c #ED8400",
"# 	c #EE8700",
"$ 	c #F49500",
"% 	c #F49900",
"& 	c #F49E00",
"* 	c #F3A200",
"= 	c #F29D00",
"- 	c #E57E00",
"; 	c #A04200",
"> 	c #842A00",
", 	c #D26D00",
"' 	c #F89000",
") 	c #F29300",
"! 	c #F49C00",
"~ 	c #F5A300",
"{ 	c #F7A600",
"] 	c #F5A600",
"^ 	c #F7A700",
"/ 	c #F7A300",
"( 	c #F69E00",
"_ 	c #F1A100",
": 	c #F47B00",
"< 	c #F38600",
"[ 	c #F78E00",
"} 	c #E28300",
"| 	c #B56400",
"1 	c #BF7100",
"2 	c #F79C00",
"3 	c #F3A100",
"4 	c #F6A700",
"5 	c #F5A700",
"6 	c #F7A900",
"7 	c #F6A800",
"8 	c #F6A500",
"9 	c #721800",
"0 	c #A24500",
"a 	c #E07900",
"b 	c #FB8F00",
"c 	c #F68D00",
"d 	c #F88F00",
"e 	c #F19400",
"f 	c #F39D00",
"g 	c #F6A300",
"h 	c #F7A800",
"i 	c #F5A900",
"j 	c #F89E00",
"k 	c #D37700",
"l 	c #C06A00",
"m 	c #994600",
"n 	c #792200",
"o 	c #933600",
"p 	c #C66300",
"q 	c #F39200",
"r 	c #F59800",
"s 	c #F5A200",
"t 	c #F19B00",
"u 	c #E99900",
"v 	c #EF9F00",
"w 	c #F8A800",
"x 	c #F5A800",
"y 	c #F69F00",
"z 	c #EF7A00",
"A 	c #F58B00",
"B 	c #F48A00",
"C 	c #ED8700",
"D 	c #E08000",
"E 	c #C86900",
"F 	c #E08400",
"G 	c #F99E00",
"H 	c #F5A100",
"I 	c #F8A300",
"J 	c #D47400",
"K 	c #F78800",
"L 	c #FA8E00",
"M 	c #F68C00",
"N 	c #F38B00",
"O 	c #F38D00",
"P 	c #F79200",
"Q 	c #F39800",
"R 	c #F4A000",
"S 	c #F79B00",
"T 	c #701B00",
"U 	c #6A1000",
"V 	c #872C00",
"W 	c #AD4D00",
"X 	c #D36B00",
"Y 	c #F49100",
"Z 	c #F19200",
"` 	c #F19A00",
" .	c #F59C00",
"..	c #F8A900",
"+.	c #F6A900",
"@.	c #F19F00",
"#.	c #D87A00",
"$.	c #D07100",
"%.	c #C05D00",
"&.	c #AD4E00",
"*.	c #9B3F00",
"=.	c #C05B00",
"-.	c #F79800",
";.	c #F39C00",
">.	c #F4A300",
",.	c #F3A400",
"'.	c #EF8300",
").	c #F88D00",
"!.	c #FA9100",
"~.	c #F59100",
"{.	c #F29800",
"].	c #F39F00",
"^.	c #F69D00",
"/.	c #F3A500",
"(.	c #F9A700",
"_.	c #F3A000",
":.	c #C35F00",
"<.	c #C15D00",
"[.	c #B85400",
"}.	c #C05E00",
"|.	c #F09300",
"1.	c #F29600",
"2.	c #F59E00",
"3.	c #F2A100",
"4.	c #F1A300",
"5.	c #F2A400",
"6.	c #F1A200",
"7.	c #F2A300",
"8.	c #F1A400",
"9.	c #EE9B00",
"0.	c #C36D00",
"a.	c #C06200",
"b.	c #CA6400",
"c.	c #E78300",
"d.	c #F39400",
"e.	c #F39A00",
"f.	c #F28300",
"g.	c #F78500",
"h.	c #F88B00",
"i.	c #F18B00",
"j.	c #F29100",
"k.	c #F4A100",
"l.	c #F69C00",
"m.	c #BE5800",
"n.	c #C35B00",
"o.	c #DD7400",
"p.	c #F18A00",
"q.	c #F09000",
"r.	c #F19700",
"s.	c #F49D00",
"t.	c #B15100",
"u.	c #A94900",
"v.	c #A93F00",
"w.	c #9C3E00",
"x.	c #D97100",
"y.	c #F38A00",
"z.	c #F19100",
"A.	c #F29900",
"B.	c #F49B00",
"C.	c #F49200",
"D.	c #FB9900",
"E.	c #F59700",
"F.	c #F39500",
"G.	c #F49700",
"H.	c #F39600",
"I.	c #F49600",
"J.	c #F29400",
"K.	c #F49800",
"L.	c #F09600",
"M.	c #F67C00",
"N.	c #FB7F00",
"O.	c #FC8400",
"P.	c #FF8500",
"Q.	c #F27F00",
"R.	c #EE8500",
"S.	c #F08C00",
"T.	c #F19300",
"U.	c #F19600",
"V.	c #F39700",
"W.	c #F29700",
"X.	c #F08D00",
"Y.	c #7D2A00",
"Z.	c #661500",
"`.	c #550200",
" +	c #691500",
".+	c #E47300",
"++	c #F07C00",
"@+	c #EF8400",
"#+	c #EF8700",
"$+	c #F28A00",
"%+	c #F18200",
"&+	c #F58700",
"*+	c #F08700",
"=+	c #F08E00",
"-+	c #F18D00",
";+	c #F28C00",
">+	c #EF8C00",
",+	c #F18C00",
"'+	c #EC8500",
")+	c #E16200",
"!+	c #F26700",
"~+	c #F87000",
"{+	c #F66E00",
"]+	c #EC6C00",
"^+	c #EC7300",
"/+	c #ED7A00",
"(+	c #EE7F00",
"_+	c #ED8000",
":+	c #EF7400",
"<+	c #F47C00",
"[+	c #E96D00",
"}+	c #EA7B00",
"|+	c #ED8200",
"1+	c #EE8300",
"2+	c #EE8200",
"3+	c #F08300",
"4+	c #E87B00",
"5+	c #EB5800",
"6+	c #DE4F00",
"7+	c #DB5100",
"8+	c #E75B00",
"9+	c #E95C00",
"0+	c #E86600",
"a+	c #ED6D00",
"b+	c #EB7000",
"c+	c #ED7600",
"d+	c #EC6800",
"e+	c #E26D00",
"f+	c #EB7200",
"g+	c #EC7600",
"h+	c #EB7600",
"i+	c #EC7700",
"j+	c #ED7700",
"k+	c #E66F00",
"l+	c #7A2400",
"m+	c #862000",
"n+	c #B73800",
"o+	c #F05100",
"p+	c #E65300",
"q+	c #E85B00",
"r+	c #E96000",
"s+	c #EA6500",
"t+	c #EA6900",
"u+	c #EA5C00",
"v+	c #EA6700",
"w+	c #EB6700",
"x+	c #EB6C00",
"y+	c #EB6B00",
"z+	c #EB6900",
"A+	c #EA6A00",
"B+	c #E46300",
"C+	c #C03C00",
"D+	c #972900",
"E+	c #8A2000",
"F+	c #E24300",
"G+	c #E64B00",
"H+	c #E74E00",
"I+	c #E95400",
"J+	c #E85900",
"K+	c #E95600",
"L+	c #E65E00",
"M+	c #E95E00",
"N+	c #EA6100",
"O+	c #E86000",
"P+	c #EA6000",
"Q+	c #E85F00",
"R+	c #E96100",
"S+	c #E35A00",
"T+	c #C13600",
"U+	c #EC4200",
"V+	c #FA4400",
"W+	c #F64500",
"X+	c #EA4500",
"Y+	c #E54700",
"Z+	c #E75100",
"`+	c #E95500",
" @	c #E74D00",
".@	c #E25700",
"+@	c #E85600",
"@@	c #E85700",
"#@	c #E95700",
"$@	c #E75600",
"%@	c #E75500",
"&@	c #E25400",
"*@	c #EE3C00",
"=@	c #D13300",
"-@	c #871C00",
";@	c #290200",
">@	c #8B2000",
",@	c #EE4400",
"'@	c #E64500",
")@	c #E64900",
"!@	c #E84C00",
"~@	c #E54900",
"{@	c #E05000",
"]@	c #E65000",
"^@	c #E74F00",
"/@	c #E64E00",
"(@	c #E85000",
"_@	c #E14C00",
":@	c #4B0C00",
"<@	c #640E00",
"[@	c #D83400",
"}@	c #F23A00",
"|@	c #EB3A00",
"1@	c #E44100",
"2@	c #E64300",
"3@	c #E54600",
"4@	c #EA4200",
"5@	c #E14A00",
"6@	c #E64A00",
"7@	c #E64800",
"8@	c #E74A00",
"9@	c #E04200",
"0@	c #C02700",
"a@	c #F53800",
"b@	c #EE3300",
"c@	c #F23300",
"d@	c #9D2400",
"e@	c #ED3A00",
"f@	c #E43E00",
"g@	c #E54100",
"h@	c #E74500",
"i@	c #E03B00",
"j@	c #E44200",
"k@	c #E74400",
"l@	c #E64400",
"m@	c #E74300",
"n@	c #E84400",
"o@	c #E64100",
"p@	c #E94400",
"q@	c #DF3E00",
"r@	c #E52A00",
"s@	c #E72B00",
"t@	c #941C00",
"u@	c #2B0100",
"v@	c #A42100",
"w@	c #F33500",
"x@	c #E33A00",
"y@	c #E33C00",
"z@	c #E63D00",
"A@	c #E53D00",
"B@	c #E53A00",
"C@	c #E73F00",
"D@	c #E53F00",
"E@	c #E44000",
"F@	c #E43F00",
"G@	c #E54000",
"H@	c #E53E00",
"I@	c #E74200",
"J@	c #DE3B00",
"K@	c #631700",
"L@	c #621600",
"M@	c #E22C00",
"N@	c #8B1E00",
"O@	c #ED3700",
"P@	c #E43D00",
"Q@	c #E33F00",
"R@	c #E54200",
"S@	c #E63F00",
"T@	c #E74100",
"U@	c #DD3B00",
"V@	c #E53100",
"W@	c #3A0600",
"X@	c #BE2800",
"Y@	c #E23D00",
"Z@	c #E43C00",
"`@	c #EB3800",
" #	c #E53C00",
".#	c #E54300",
"+#	c #E84100",
"@#	c #DC3B00",
"##	c #B12400",
"$#	c #F83500",
"%#	c #E53300",
"&#	c #E83F00",
"*#	c #EA3400",
"=#	c #EA3F00",
"-#	c #EA3E00",
";#	c #EA3D00",
">#	c #E13C00",
",#	c #B32F00",
"'#	c #CB3200",
")#	c #CE3600",
"!#	c #CD3B00",
"~#	c #CA3500",
"                                                                ",
"                            . + @ # $ % & * =                   ",
"                      - ; > , ' ) ! ~ { ] ^ ] / ( _             ",
"                    : < [ } | 1 2 3 4 5 6 7 7 4 7 8 &           ",
"                  9 0 a b c d e f g { 4 5 h 7 7 7 7 i j         ",
"                k l m n o p q r s t u v w 7 7 7 6 7 h x y       ",
"                z A B C D E F f G       H 6 7 7 7 7 6 7 I       ",
"              J K L M N O P Q R S       g ] 6 6 7 5 6 7 { y     ",
"              T U V W X Y Z ` R  .      ~ 4 7 7 ..+.x 5 ^ @.    ",
"              #.$.%.&.*.=.-.;.>.2       ,.8 7 6 5 x 7 7 w @.    ",
"              '.K ).!.' ~.{.].~ ^.      /.(.h h h ..h ^ { _.    ",
"              :.<.[.}.a |.1.R g 2.      t 3.4.5.6.4.7.8.7.9.    ",
"              0.a.%.b.c.d.e.].g (                               ",
"              f.g.h.. i.j.{.k.~ l.                              ",
"              m.n.p o.p.q.r.s.& r                               ",
"              t.u.v.w.x.y.z.A.B.C.  D.z.E.F.G.H.G.I.J.K.K.L.    ",
"              M.N.O.P.Q.R.S.T.J.N     j.U.V.U.W.{.L.V.{.F.X.    ",
"              Y.Z.`. +.+++@+#+$+%+  &+*+=+-+-+;+>+X.,+,+;+'+    ",
"              )+!+~+{+]+^+/+(+_+:+  <+[+}+'.|+1+1+2+3+2+1+4+    ",
"              5+6+7+8+9+0+a+b+c+d+      e+f+g+h+g+c+i+g+j+k+    ",
"              l+m+n+o+p+q+r+s+t+u+      v+w+x+y+z+y+A+y+]+B+    ",
"              C+D+E+F+G+H+I+J+9+K+      L+M+N+O+P+Q+O+O+R+S+    ",
"              T+U+V+W+X+Y+H+Z+`+ @      .@+@@@#@$@%@$@+@K+&@    ",
"              *@=@-@;@>@,@'@)@!@~@      {@]@]@^@/@(@^@^@^@_@    ",
"                :@<@[@}@|@1@2@3@4@      5@6@G+~@6@7@6@6@8@9@    ",
"                0@a@b@c@d@e@f@g@h@i@    j@k@l@m@n@o@h@h@p@q@    ",
"                r@s@t@u@v@w@x@y@z@A@B@C@D@1@C@E@1@F@G@H@I@J@    ",
"                  K@L@M@b@N@O@P@P@H@P@Q@g@R@C@f@G@S@P@P@T@U@    ",
"                    s@V@W@X@|@Y@P@Z@D@F@T@`@   #.#S@g@D@+#@#    ",
"                        ##$#%# #z@z@&#U+U@      *#=#-#=#;#>#    ",
"                            ,#'#)#!#~#                          ",
"                                                                "};
