#define gluplot_width 32
#define gluplot_height 32
static unsigned char gluplot_bits[] = {
   0x00, 0x00, 0x00, 0x00, 0x00, 0x00, 0x00, 0x00, 0x00, 0x30, 0x00, 0x00,
   0x00, 0x00, 0x00, 0x00, 0x00, 0x02, 0x00, 0x00, 0x00, 0x1c, 0x00, 0x00,
   0x00, 0x00, 0x00, 0x00, 0x00, 0x00, 0x00, 0x00, 0x80, 0x03, 0x00, 0x00,
   0x00, 0x04, 0x00, 0x00, 0x00, 0x00, 0x00, 0x00, 0x00, 0x00, 0x00, 0x00,
   0x00, 0x01, 0x00, 0x00, 0x00, 0x00, 0x00, 0x00, 0x00, 0x00, 0x00, 0x00,
   0x00, 0x03, 0x00, 0x00, 0x00, 0x00, 0x00, 0x00, 0x80, 0x07, 0x00, 0x00,
   0x00, 0x00, 0x00, 0x00, 0x00, 0x00, 0x00, 0x00, 0x80, 0x03, 0x00, 0x00,
   0x80, 0x02, 0x00, 0x00, 0x00, 0x10, 0x00, 0x00, 0x00, 0x4f, 0x10, 0x08,
   0x00, 0x07, 0x41, 0x21, 0x00, 0x31, 0x00, 0x04, 0x00, 0x9c, 0x50, 0x11,
   0x00, 0x26, 0x05, 0x04, 0x00, 0x38, 0x28, 0x11, 0x00, 0x50, 0x01, 0x02,
   0x00, 0x40, 0x05, 0x00, 0x00, 0x00, 0x00, 0x00 };
